<?xml version="1.0" standalone="no"?>
<!DOCTYPE svg PUBLIC "-//W3C//DTD SVG 20010904//EN"
 "http://www.w3.org/TR/2001/REC-SVG-20010904/DTD/svg10.dtd">
<svg version="1.0" xmlns="http://www.w3.org/2000/svg"
 width="1024.000000pt" height="1024.000000pt" viewBox="0 0 1024.000000 1024.000000"
 preserveAspectRatio="xMidYMid meet">
<metadata>
Created by potrace 1.14, written by Peter Selinger 2001-2017
</metadata>
<g transform="translate(0.000000,1024.000000) scale(0.100000,-0.100000)"
fill="#000000" stroke="none">
<path d="M5749 8666 c-2 -2 -34 -6 -71 -10 -99 -9 -343 -49 -343 -56 0 -1 -11
-3 -25 -6 -27 -4 -155 -41 -180 -51 -8 -3 -20 -7 -27 -9 -21 -4 -88 -26 -98
-33 -5 -3 -12 -6 -15 -6 -3 -1 -22 -9 -44 -18 -21 -9 -41 -17 -44 -17 -3 0
-57 -25 -119 -56 -129 -63 -258 -136 -351 -200 -35 -24 -65 -44 -67 -44 -5 0
-24 -15 -78 -62 -18 -15 -35 -28 -39 -28 -4 0 -22 -15 -42 -32 -19 -18 -55
-50 -79 -70 -98 -84 -251 -244 -351 -368 -20 -25 -45 -56 -56 -68 -11 -13 -20
-26 -20 -29 0 -12 -92 -123 -99 -119 -4 3 -18 7 -32 10 -13 3 -35 8 -49 11
-169 40 -435 49 -585 19 -11 -3 -38 -7 -60 -10 -116 -15 -357 -102 -500 -181
-65 -36 -193 -119 -205 -132 -3 -4 -23 -19 -45 -36 -45 -33 -215 -201 -258
-255 -48 -60 -174 -254 -182 -280 -4 -14 -10 -27 -14 -30 -15 -13 -105 -236
-116 -290 -2 -8 -10 -42 -19 -76 -9 -34 -17 -77 -18 -97 -2 -21 -5 -37 -8 -37
-3 0 -6 -17 -7 -37 -4 -87 -15 -188 -21 -195 -4 -3 -27 -10 -52 -13 -25 -4
-49 -8 -55 -9 -51 -13 -84 -23 -174 -53 -57 -19 -119 -44 -138 -54 -18 -10
-40 -19 -48 -19 -8 0 -15 -5 -15 -11 0 -5 -3 -8 -8 -5 -4 2 -26 -9 -50 -25
-23 -16 -45 -29 -48 -29 -8 0 -87 -53 -134 -90 -25 -19 -51 -39 -58 -45 -33
-24 -202 -195 -242 -245 -25 -30 -48 -56 -52 -58 -5 -2 -8 -10 -8 -18 0 -8 -4
-14 -9 -14 -5 0 -14 -13 -21 -29 -6 -16 -18 -32 -26 -35 -8 -3 -14 -10 -14
-15 0 -6 -15 -34 -33 -63 -36 -57 -107 -201 -133 -270 -9 -24 -20 -52 -24 -63
-20 -47 -62 -185 -76 -250 -9 -38 -18 -79 -20 -90 -3 -11 -7 -33 -9 -50 -3
-16 -7 -41 -10 -55 -14 -70 -20 -175 -19 -365 1 -205 4 -258 25 -354 5 -25 10
-53 10 -61 1 -15 16 -74 47 -180 8 -30 15 -56 14 -58 -2 -1 5 -16 14 -33 8
-17 17 -40 20 -52 2 -11 35 -84 74 -161 66 -131 83 -163 103 -190 4 -6 32 -49
62 -94 31 -46 61 -89 68 -96 6 -7 23 -28 37 -46 59 -79 200 -222 326 -329 47
-41 189 -143 231 -167 26 -16 50 -31 53 -34 3 -3 14 -10 25 -16 163 -88 191
-102 390 -185 22 -9 111 -38 135 -45 8 -2 56 -15 105 -28 50 -14 101 -28 115
-30 14 -3 50 -9 80 -15 86 -16 111 -20 170 -27 30 -3 71 -8 90 -11 60 -9 6011
-13 6075 -3 33 4 83 11 110 15 28 3 57 8 65 10 8 2 31 6 50 9 19 4 53 11 75
17 22 5 47 11 55 13 51 8 226 66 300 99 25 11 47 21 50 21 17 3 96 42 102 51
4 5 8 6 8 1 0 -5 7 -3 15 4 8 6 29 19 47 29 96 51 143 81 255 163 116 85 111
81 246 214 124 122 128 128 201 228 28 39 53 73 56 76 3 3 11 17 19 32 8 16
18 28 23 28 4 0 8 9 8 20 0 11 4 20 8 20 9 0 29 37 30 54 0 5 4 12 9 15 12 8
73 137 103 216 12 33 26 69 31 80 10 26 28 86 34 111 2 10 11 49 19 85 9 37
18 82 20 100 3 19 5 34 6 34 7 0 14 143 14 290 1 161 -6 278 -19 339 -2 12 -7
35 -10 51 -9 56 -30 139 -55 225 -7 25 -14 50 -16 55 -14 63 -155 368 -198
430 -12 17 -26 37 -31 46 -28 45 -69 105 -74 109 -4 3 -18 21 -31 40 -51 73
-198 226 -300 311 -36 30 -66 57 -68 62 -2 4 -10 7 -17 7 -7 0 -15 4 -17 8 -4
12 -155 112 -168 112 -5 0 -10 3 -10 8 0 4 -60 36 -132 71 l-133 64 -1 101
c-2 130 -17 346 -30 406 -2 14 -7 43 -9 65 -3 22 -7 49 -9 60 -2 11 -12 56
-21 100 -35 169 -113 431 -162 545 -8 19 -19 44 -23 55 -13 32 -129 268 -140
285 -33 52 -90 153 -90 161 0 5 -4 9 -9 9 -5 0 -11 8 -15 18 -3 9 -24 42 -46
72 -23 30 -50 70 -62 88 -11 17 -24 32 -29 32 -5 0 -9 5 -9 10 0 6 -8 18 -17
28 -10 11 -33 37 -51 60 -18 22 -45 54 -60 70 -15 16 -41 45 -58 63 -62 68
-190 184 -294 269 -57 46 -277 197 -315 216 -16 8 -39 20 -50 27 -32 20 -70
41 -75 42 -19 5 -146 70 -148 77 -2 4 -10 8 -17 8 -8 0 -31 7 -52 16 -21 9
-47 20 -58 24 -88 34 -140 52 -200 70 -38 12 -77 24 -85 27 -8 3 -24 8 -34 10
-11 2 -45 10 -75 18 -59 15 -185 41 -236 49 -16 2 -30 5 -30 6 0 0 -27 3 -60
6 -33 3 -71 7 -85 10 -29 7 -544 16 -551 10z m-1459 -2746 c30 -13 62 -29 70
-35 8 -6 33 -21 55 -32 22 -11 69 -35 105 -55 98 -52 226 -121 305 -163 39
-20 75 -40 80 -44 6 -5 64 -36 130 -71 66 -35 155 -83 199 -107 43 -23 82 -43
87 -43 4 0 14 -6 21 -12 7 -7 42 -28 78 -46 36 -18 99 -51 140 -74 41 -22 111
-60 155 -83 110 -58 158 -85 173 -97 6 -6 12 -7 12 -3 0 5 8 2 18 -6 9 -8 40
-26 67 -39 28 -14 52 -27 55 -30 3 -3 22 -14 42 -23 37 -18 38 -18 85 9 43 24
146 79 273 145 25 13 47 26 50 29 3 3 37 21 75 40 39 18 72 36 75 40 3 3 43
25 90 49 47 23 117 60 155 81 39 21 108 58 155 82 47 25 96 51 110 60 14 8 75
41 135 73 61 32 142 75 180 95 84 44 135 58 194 53 81 -6 148 -50 184 -118 26
-48 28 -151 5 -205 -11 -26 -273 -374 -395 -525 -5 -5 -24 -30 -43 -55 -19
-25 -41 -52 -47 -60 -7 -8 -65 -82 -128 -165 -64 -82 -124 -159 -133 -170 -9
-11 -30 -38 -47 -60 -31 -42 -44 -58 -60 -78 -6 -7 -49 -61 -95 -122 -46 -60
-95 -124 -109 -141 -15 -17 -36 -44 -48 -60 -13 -16 -62 -78 -109 -139 -47
-60 -98 -126 -112 -145 -143 -187 -156 -202 -223 -247 -87 -60 -187 -71 -306
-35 -30 10 -208 97 -228 112 -5 4 -55 31 -110 60 -134 71 -137 73 -157 89 -10
8 -18 10 -18 6 0 -4 -8 -1 -17 7 -10 8 -52 32 -93 53 -41 21 -91 47 -110 58
-19 11 -71 38 -115 61 -44 22 -82 43 -85 46 -3 3 -30 18 -60 35 -187 100 -239
128 -270 143 -19 9 -37 19 -40 22 -3 3 -27 17 -55 31 -57 30 -166 88 -240 129
-27 15 -95 51 -150 80 -55 29 -105 56 -110 61 -6 4 -31 -3 -55 -16 -25 -14
-81 -43 -125 -66 -44 -23 -82 -44 -85 -48 -3 -3 -39 -23 -80 -44 -105 -53
-183 -94 -195 -104 -5 -5 -26 -15 -45 -23 -19 -8 -37 -17 -40 -20 -3 -4 -58
-35 -123 -69 -135 -71 -178 -95 -224 -123 -18 -11 -33 -16 -33 -12 0 4 -8 0
-17 -8 -10 -8 -76 -46 -148 -83 -71 -38 -132 -71 -135 -74 -3 -4 -36 -22 -75
-40 -148 -72 -294 -33 -358 95 -22 44 -17 158 8 204 16 27 109 152 188 250 7
8 59 76 117 150 57 74 109 140 115 147 30 36 35 43 35 50 0 5 9 15 20 23 11 8
20 20 20 26 0 7 3 14 8 16 4 2 23 23 42 48 43 55 52 67 65 83 6 7 39 50 75 97
35 47 67 87 70 90 3 3 18 23 35 45 16 22 31 42 34 45 4 3 35 43 70 90 36 47
78 101 93 120 16 19 32 40 36 45 28 38 139 182 147 191 6 6 66 85 135 174 128
168 196 244 240 272 28 17 113 45 150 50 36 4 127 -16 190 -42z"/>
</g>
</svg>
