<svg width="0" height="0" class="hidden">
    <symbol viewBox="0 0 105.838 25.824" xmlns="http://www.w3.org/2000/svg" xmlns:xlink="http://www.w3.org/1999/xlink" id="logotype">
        <g transform="translate(-46.65 -274.592)">
            <path d="M26.738,6.606a7.33,7.33,0,0,0,2.709-.494,6.925,6.925,0,0,0,2.2-1.374A6.367,6.367,0,0,0,33.123,2.7,5.92,5.92,0,0,0,33.65.214,6.532,6.532,0,0,0,33.163-2.3a6.53,6.53,0,0,0-1.381-2.1,6.391,6.391,0,0,0-2.148-1.435,10.345,10.345,0,0,0-.694-3.917,9.406,9.406,0,0,0-1.975-3.1A8.84,8.84,0,0,0,24-14.872a9.322,9.322,0,0,0-3.656-.714,8.43,8.43,0,0,0-3.083.54A8.836,8.836,0,0,0,14.788-13.6a9.658,9.658,0,0,0-1.848,2.042,4.957,4.957,0,0,0-2.362-.093,5.322,5.322,0,0,0-2.115.947A5.375,5.375,0,0,0,6.928-8.927a5.312,5.312,0,0,0-.621,2.415A5.078,5.078,0,0,0,3.826-5.4,5.83,5.83,0,0,0,2.218-3.216,7.134,7.134,0,0,0,1.65-.347a6.279,6.279,0,0,0,.58,2.669A7.059,7.059,0,0,0,3.852,4.544,7.52,7.52,0,0,0,6.294,6.052a8.346,8.346,0,0,0,3.029.54ZM9.31-1.041l4.324-5.578a1.165,1.165,0,0,1,.894-.507,1.625,1.625,0,0,1,.734.24l5.5,2.962,4.3-2.3A.864.864,0,0,1,25.8-6.3a.682.682,0,0,1,.42.474.842.842,0,0,1-.187.727L21.68.494A1.193,1.193,0,0,1,20.786,1a1.707,1.707,0,0,1-.747-.227L14.528-2.2,10.271.094a.846.846,0,0,1-.734.08A.7.7,0,0,1,9.1-.3.825.825,0,0,1,9.31-1.041Z" transform="translate(45 291)" fill="#50c1e9"/>
            <path d="M10.88-13.76H7.936v-3.072a1.114,1.114,0,0,0-.176-.752,1.114,1.114,0,0,0-.752-.176H5.376a1.187,1.187,0,0,0-.768.176,1.045,1.045,0,0,0-.192.752V-3.168a1.045,1.045,0,0,0,.192.752,1.187,1.187,0,0,0,.768.176H7.008a1.114,1.114,0,0,0,.752-.176,1.114,1.114,0,0,0,.176-.752v-3.04H10.88v3.392Q10.88.032,7.872.032H4.48Q1.5.032,1.5-2.816v-14.4q0-2.816,2.976-2.816H7.872q3.008,0,3.008,2.816ZM16.352,0h-2.88V-21.408h2.88Zm5.6-15.616h3.424q2.976,0,2.976,2.848v9.952Q28.352,0,25.376,0H21.952q-2.944,0-2.944-2.816v-9.952Q19.008-15.616,21.952-15.616ZM25.5-3.232v-9.152a1.112,1.112,0,0,0-.192-.768,1.112,1.112,0,0,0-.768-.192h-1.76a1.045,1.045,0,0,0-.752.192,1.187,1.187,0,0,0-.176.768v9.152a1.187,1.187,0,0,0,.176.768,1.045,1.045,0,0,0,.752.192h1.76a1.112,1.112,0,0,0,.768-.192A1.112,1.112,0,0,0,25.5-3.232ZM36.992-15.616h2.88V0h-2.88V-1.248A1.848,1.848,0,0,1,35.008,0H33.856q-2.88,0-2.88-2.816v-12.8h2.88V-3.264a1.045,1.045,0,0,0,.192.752,1.187,1.187,0,0,0,.768.176h1.12a1.084,1.084,0,0,0,.816-.256,1.249,1.249,0,0,0,.24-.864Zm11.52-5.792h2.88V0h-2.88V-1.248A1.848,1.848,0,0,1,46.528,0H45.376Q42.5,0,42.5-2.816V-12.8q0-2.848,2.88-2.848h1.152A1.848,1.848,0,0,1,48.512-14.4ZM46.336-2.336h1.12a1.084,1.084,0,0,0,.816-.256,1.249,1.249,0,0,0,.24-.864v-8.736a1.249,1.249,0,0,0-.24-.864,1.084,1.084,0,0,0-.816-.256h-1.12a1.112,1.112,0,0,0-.768.192,1.051,1.051,0,0,0-.192.736v9.12a1.045,1.045,0,0,0,.192.752A1.187,1.187,0,0,0,46.336-2.336ZM56.512,4.416h-1.92v-2.3H55.9q1.376,0,1.664-1.056l.32-1.312H56.32l-3.264-15.36H56L58.368-2.528l2.208-13.088h2.912L60.192,1.5A3.443,3.443,0,0,1,56.512,4.416Z" transform="translate(89 296)" fill="#666"/>
        </g>
    </symbol>
    <symbol viewBox="0 0 290 266" xmlns="http://www.w3.org/2000/svg" xmlns:xlink="http://www.w3.org/1999/xlink" id="illustration-rocket">
        <g clip-path="url(#clip0_1_50)">
            <path d="M185.796 212.036L188.583 218.284C186.318 217.924 184.211 219.858 184.164 222.343C184.117 224.827 186.137 227.412 188.402 227.765C187.97 229.694 186.101 230.544 184.479 231.324C182.858 232.104 181.11 233.397 181.231 235.452C181.327 237.102 182.692 238.559 184.141 239.145C185.591 239.731 187.111 239.641 188.579 239.543C186.355 241.869 186.138 246.242 188.091 249.38C190.044 252.517 193.945 254.061 196.866 252.854C194.802 255.421 195.251 260.122 197.812 262.772C200.394 265.442 204.136 265.701 207.407 265.42C215.737 264.715 223.674 261.57 230.225 256.377C232.726 254.389 235.062 252.052 236.488 249.004C237.915 245.956 238.335 242.096 237.007 238.627C237.365 242.973 241.714 246.405 245.627 246.597C249.54 246.789 252.956 244.585 255.86 242.072C259.72 238.73 263.295 234.045 262.765 228.264C262.503 225.403 261.253 222.65 260.027 219.984L257.65 214.816C256.691 212.73 255.71 210.608 254.265 208.857C252.821 207.106 250.817 205.751 248.811 205.763C249.27 203.668 249.73 201.495 249.346 199.268C248.962 197.042 247.49 194.737 245.488 194.216C242.941 193.552 240.782 195.903 238.22 195.681C235.755 195.468 233.718 192.994 231.325 192.014C230.339 191.588 229.25 191.458 228.192 191.641C227.134 191.824 226.153 192.312 225.367 193.044C223.85 194.526 223.217 197.029 223.762 199.397C224.239 201.471 225.508 203.301 226.279 205.302C227.049 207.302 227.169 209.875 225.689 210.968C223.904 212.286 221.186 210.492 219.79 208.321C218.395 206.151 217.594 203.522 215.83 201.697C213.748 199.542 210.489 199.037 208.345 200.537C206.201 202.037 205.381 205.396 206.462 208.251C207.346 210.585 209.37 212.947 208.668 215.146C207.926 217.469 204.679 217.175 202.721 215.533C200.762 213.891 199.462 211.417 197.527 209.738C195.562 208.033 192.996 207.286 190.744 207.763C189.601 208.029 188.544 208.577 187.669 209.359C186.795 210.14 186.131 211.13 185.739 212.235" fill="#E6E6E6"/>
            <path d="M230.914 194.477L225.132 197.163C224.263 197.592 223.277 197.725 222.325 197.541C221.486 197.343 220.919 196.83 220.77 196.133L219.424 189.849C219.17 188.663 220.152 187.261 221.759 186.514L224.952 185.031C226.558 184.284 228.263 184.439 229.005 185.397L232.94 190.478C233.377 191.041 233.403 191.806 233.013 192.576C232.54 193.421 231.803 194.089 230.914 194.477V194.477Z" fill="#3F3D56"/>
            <path d="M51.6229 78.3351C57.0588 63.4571 65.5418 49.8784 76.5287 38.4683C85.8502 28.7917 100.358 29.1938 100.358 29.1938L100.44 29.0909C103.932 24.7853 108.617 21.6066 113.909 19.9536C119.2 18.3007 124.861 18.2471 130.183 19.7997C131.566 20.1966 132.63 20.3725 133.136 20.1957C142.361 16.967 141.928 9.67951 149.887 3.80875C163.824 -6.4706 210.049 5.30419 216.567 24.2194C221.85 39.5498 245.432 46.9803 254.242 58.7068C255.62 60.5404 256.971 62.3952 258.297 64.2713C258.919 65.1429 259.533 66.021 260.141 66.9057C266.383 75.9452 271.983 85.4116 276.899 95.2353C280.123 101.654 282.924 108.275 285.287 115.058C294.474 141.918 291.332 161.93 265.998 156.986C262.999 156.399 260.072 155.874 257.218 155.411C253.084 154.736 249.094 154.182 245.248 153.748C240.069 153.159 235.143 152.773 230.468 152.59C228.896 152.527 227.353 152.484 225.838 152.463C203.449 152.152 186.842 156.366 174.19 162.907C172.045 164.014 170.013 165.184 168.093 166.418C165.16 168.292 162.36 170.367 159.712 172.626C156.047 175.771 152.668 179.233 149.614 182.973L149.446 183.178C134.648 201.279 129.778 221.318 119.484 224.846C75.4818 239.931 47.6521 185.248 44.7981 131.757C44.654 129.061 44.5744 126.374 44.5593 123.694C44.5504 122.496 44.5563 121.301 44.577 120.109C44.6221 117.001 44.7592 113.912 44.9887 110.861C45.0744 109.694 45.1738 108.534 45.2869 107.379C45.4116 106.135 45.5472 104.897 45.7039 103.668C46.8233 94.6547 48.7816 86.0796 51.6229 78.3351Z" fill="#6C63FF"/>
            <path d="M188.009 107.766C184.494 109.402 184.437 116.73 185.538 119.104L187.535 123.402L200.264 117.488L198.267 113.19C197.163 110.817 191.525 106.135 188.009 107.766Z" fill="#3F3D56"/>
            <path d="M153.803 169.472C153.579 169.472 153.358 169.418 153.16 169.314C152.961 169.211 152.79 169.061 152.662 168.877C152.534 168.694 152.451 168.482 152.422 168.26C152.393 168.038 152.418 167.812 152.495 167.601C152.557 167.43 152.653 167.272 152.777 167.137C152.901 167.002 153.05 166.894 153.216 166.817L218.951 136.276C219.117 136.199 219.296 136.155 219.479 136.147C219.661 136.14 219.843 136.168 220.015 136.231C220.187 136.293 220.344 136.389 220.479 136.513C220.614 136.637 220.722 136.786 220.799 136.951C220.954 137.286 220.97 137.669 220.844 138.015C220.717 138.362 220.458 138.644 220.124 138.8H220.124L154.389 169.341C154.205 169.427 154.005 169.471 153.803 169.472V169.472Z" fill="#3F3D56"/>
            <path d="M205.223 120.229L186.432 128.959L215.908 192.4L234.698 183.67L205.223 120.229Z" fill="#E6E6E6"/>
            <path d="M134.686 40.3683C131.172 42.0044 131.114 49.3326 132.216 51.7071L134.213 56.005L146.941 50.091L144.945 45.7931C143.84 43.4196 138.203 38.7377 134.686 40.3683Z" fill="#3F3D56"/>
            <path d="M213.423 201.77L207.641 204.456C206.772 204.885 205.786 205.018 204.835 204.834C203.995 204.636 203.428 204.123 203.279 203.426L201.934 197.142C201.68 195.956 202.661 194.554 204.268 193.808L207.461 192.324C209.068 191.577 210.773 191.732 211.515 192.69L215.45 197.771C215.886 198.335 215.912 199.099 215.523 199.869C215.049 200.714 214.312 201.382 213.423 201.77V201.77Z" fill="#3F3D56"/>
            <path d="M195.646 210.59L189.864 213.276C188.995 213.705 188.009 213.838 187.058 213.654C186.218 213.456 185.651 212.943 185.502 212.246L184.156 205.962C183.902 204.776 184.884 203.374 186.491 202.627L189.684 201.144C191.29 200.397 192.995 200.552 193.738 201.51L197.672 206.591C198.109 207.154 198.135 207.919 197.746 208.688C197.272 209.534 196.535 210.202 195.646 210.59V210.59Z" fill="#3F3D56"/>
            <path d="M156.914 63.6233L138.123 72.3534L197.704 200.591L216.494 191.861L156.914 63.6233Z" fill="#E6E6E6"/>
            <path d="M176.41 129.73L174.302 125.09L175.515 124.53L177.617 129.155L208.055 196.642L206.842 197.206" fill="#3F3D56"/>
            <path d="M200.191 125.873L198.082 121.234L199.296 120.674L201.398 125.299L231.836 192.786L230.623 193.349" fill="#3F3D56"/>
            <path d="M165.783 73.8859L140.323 85.7149C138.702 83.1931 133.815 70.2703 134.913 66.4362L134.089 62.7799L151.668 54.6122L154.022 57.5068C157.514 58.5785 164.314 70.7165 165.783 73.8859Z" fill="#E6E6E6"/>
            <path d="M152.403 54.7686L134.262 63.1972C133.592 63.5083 132.879 63.3939 132.669 62.9417C132.639 62.8765 132.62 62.8066 132.614 62.7351L131.675 52.719C131.635 52.2901 132.002 51.8041 132.562 51.5437L144.593 45.9541C145.154 45.6936 145.762 45.7267 146.064 46.034L153.113 53.2111C153.473 53.5782 153.278 54.2065 152.676 54.6146C152.589 54.6731 152.498 54.7247 152.403 54.7686V54.7686Z" fill="#E6E6E6"/>
            <path d="M166.632 133.241C166.435 133.241 166.24 133.218 166.049 133.172C165.78 133.116 165.527 133 165.31 132.831C165.093 132.663 164.917 132.447 164.797 132.2L153.706 108.329C153.247 107.34 153.863 106.077 155.079 105.511L171.319 97.9658C172.536 97.4003 173.899 97.7449 174.358 98.733L185.449 122.605C185.56 122.856 185.612 123.129 185.601 123.404C185.59 123.678 185.516 123.947 185.385 124.188C185.1 124.735 184.639 125.17 184.076 125.422L167.836 132.967C167.459 133.145 167.048 133.238 166.632 133.241Z" fill="#3F3D56"/>
            <path d="M168.853 136.854L150.062 145.584L179.538 209.025L198.328 200.295L168.853 136.854Z" fill="#E6E6E6"/>
            <path d="M145.703 55.815L140.193 58.3752C139.13 58.8692 137.695 58.046 136.996 56.5403C136.296 55.0347 136.592 53.4074 137.655 52.9134L143.166 50.3532C144.229 49.8592 145.664 50.6824 146.363 52.1881C147.063 53.6937 146.767 55.321 145.703 55.815Z" fill="#3F3D56"/>
            <path d="M152.005 124.22C148.491 125.856 148.433 133.185 149.535 135.559L151.532 139.857L164.261 133.943L162.264 129.645C161.16 127.272 155.522 122.59 152.005 124.22Z" fill="#3F3D56"/>
            <path d="M93.6314 109.592C92.3903 110.419 91.12 108.451 92.385 107.661C93.626 106.834 94.8962 108.802 93.6314 109.592Z" fill="#E6E6E6"/>
            <path d="M222.818 81.3128C221.576 82.1398 220.306 80.1716 221.571 79.3814C222.812 78.5545 224.082 80.5227 222.818 81.3128Z" fill="#E6E6E6"/>
            <path d="M134.765 103.808C133.524 104.635 132.254 102.667 133.519 101.877C134.76 101.05 136.03 103.018 134.765 103.808Z" fill="#E6E6E6"/>
            <path d="M93.6314 180.934C92.3903 181.761 91.12 179.793 92.385 179.003C93.626 178.176 94.8962 180.144 93.6314 180.934Z" fill="#E6E6E6"/>
            <path d="M156.939 19.9333C155.698 20.7602 154.428 18.7921 155.693 18.0019C156.934 17.175 158.204 19.1432 156.939 19.9333Z" fill="#E6E6E6"/>
            <path d="M95.8809 57.8536C94.6398 58.6806 93.3696 56.7124 94.6345 55.9222C95.8755 55.0953 97.1458 57.0635 95.8809 57.8536Z" fill="#E6E6E6"/>
            <path d="M183.701 46.9826L182.912 46.8094L183.084 46.0195L182.558 45.9041L182.385 46.694L181.595 46.5212L181.48 47.0475L182.269 47.2208L182.097 48.0103L182.623 48.1257L182.796 47.3358L183.586 47.509L183.701 46.9826Z" fill="#E6E6E6"/>
            <path d="M55.1265 112.79L54.3369 112.617L54.5098 111.827L53.9834 111.712L53.8102 112.501L53.0203 112.328L52.9049 112.855L53.6948 113.028L53.5219 113.818L54.0483 113.933L54.2215 113.143L55.0111 113.316L55.1265 112.79Z" fill="#E6E6E6"/>
            <path d="M217.055 146.358C216.398 146.663 215.647 146.694 214.967 146.445C214.287 146.197 213.733 145.689 213.427 145.032L210.177 138.038C209.873 137.381 209.842 136.63 210.091 135.95C210.34 135.271 210.848 134.717 211.505 134.412C212.161 134.107 212.912 134.076 213.592 134.324C214.272 134.572 214.826 135.08 215.132 135.736L218.381 142.73C218.686 143.387 218.717 144.138 218.468 144.819C218.22 145.499 217.711 146.052 217.055 146.358V146.358Z" fill="#3F3D56"/>
            <path d="M161.781 172.067C161.124 172.371 160.373 172.403 159.693 172.154C159.013 171.906 158.459 171.397 158.153 170.741L154.903 163.746C154.599 163.089 154.568 162.339 154.817 161.659C155.066 160.979 155.575 160.426 156.231 160.121C156.888 159.816 157.638 159.784 158.318 160.032C158.998 160.28 159.552 160.788 159.858 161.444L163.108 168.439C163.412 169.096 163.443 169.847 163.195 170.527C162.946 171.207 162.438 171.761 161.781 172.067Z" fill="#3F3D56"/>
            <path d="M212.049 131.076L190.259 141.2C188.872 139.042 184.689 127.982 185.629 124.7L186.089 121.029L199.1 114.646L201.983 117.058C206.045 115.685 212.016 125.75 212.049 131.076Z" fill="#E6E6E6"/>
            <path d="M201.932 130.374L196.422 132.934C195.359 133.428 193.741 132.211 192.816 130.22C191.891 128.229 192.004 126.207 193.067 125.713L198.577 123.153C199.641 122.659 201.259 123.877 202.184 125.868C203.108 127.858 202.996 129.88 201.932 130.374Z" fill="#3F3D56"/>
            <path d="M155.2 143.548L153.092 138.909L154.306 138.349L156.408 142.973L186.845 210.461L185.633 211.024" fill="#3F3D56"/>
            <path d="M176.046 147.531L154.256 157.655C151.041 155.995 146.128 145.134 149.625 141.155L150.086 137.484L163.097 131.101L165.98 133.513C168.969 134.43 174.789 144.818 176.046 147.531Z" fill="#E6E6E6"/>
            <path d="M165.481 145.864L159.97 148.424C158.907 148.918 157.39 147.916 156.589 146.192C155.787 144.467 156 142.662 157.064 142.168L162.574 139.608C163.637 139.114 165.155 140.115 165.956 141.84C166.757 143.564 166.544 145.37 165.481 145.864Z" fill="#3F3D56"/>
            <path d="M55.046 98.9286C73.3266 98.9286 88.1459 84.1093 88.1459 65.8287C88.1459 47.5481 73.3266 32.7287 55.046 32.7287C36.7654 32.7287 21.946 47.5481 21.946 65.8287C21.946 84.1093 36.7654 98.9286 55.046 98.9286Z" fill="#FF6584"/>
            <path opacity="0.3" d="M190.76 100.304L210.875 41.5565L188.788 99.6005C188.678 99.7382 188.604 99.9001 188.569 100.073C188.535 100.245 188.543 100.423 188.591 100.592C188.64 100.761 188.728 100.916 188.848 101.044C188.968 101.173 189.117 101.27 189.283 101.329C189.449 101.388 189.626 101.407 189.8 101.384C189.974 101.361 190.141 101.296 190.285 101.196C190.43 101.096 190.548 100.963 190.631 100.807C190.713 100.652 190.758 100.48 190.76 100.304H190.76Z" fill="#F0F0F0"/>
            <path d="M262.941 65.7093C258.663 67.131 253.92 68.5276 248.714 69.899C221.781 76.9899 185.681 82.5211 147.063 85.4741C108.445 88.427 71.9233 88.4484 44.2257 85.5349C30.7333 84.1155 20.0616 82.074 12.5072 79.4669C4.5091 76.707 0.306506 73.3811 0.0159429 69.5821C-0.549885 62.181 14.0548 55.6668 26.4064 51.5055L26.7409 52.498C9.77896 58.2126 0.658841 64.2516 1.0604 69.5023C1.57161 76.19 17.3447 81.6538 44.3353 84.4932C71.972 87.4003 108.426 87.3781 146.983 84.4299C185.54 81.4815 221.574 75.9613 248.447 68.8861C274.691 61.9769 289.451 54.1781 288.939 47.4903C288.515 41.9377 277.57 37.1877 258.12 34.1148L258.284 33.0804C272.416 35.3132 289.387 39.6117 289.984 47.4105C290.274 51.2095 286.626 55.1355 279.141 59.0794C274.874 61.3274 269.452 63.5453 262.941 65.7093Z" fill="#3F3D56"/>
            <path d="M251.76 123.993C253.66 123.993 255.2 122.453 255.2 120.553C255.2 118.654 253.66 117.114 251.76 117.114C249.861 117.114 248.321 118.654 248.321 120.553C248.321 122.453 249.861 123.993 251.76 123.993Z" fill="#FF6584"/>
            <path d="M273.613 217.187C275.512 217.187 277.052 215.647 277.052 213.747C277.052 211.848 275.512 210.308 273.613 210.308C271.713 210.308 270.174 211.848 270.174 213.747C270.174 215.647 271.713 217.187 273.613 217.187Z" fill="#F2F2F2"/>
            <path d="M156.317 238.128C160.02 238.128 163.022 235.125 163.022 231.422C163.022 227.719 160.02 224.716 156.317 224.716C152.614 224.716 149.611 227.719 149.611 231.422C149.611 235.125 152.614 238.128 156.317 238.128Z" fill="#F2F2F2"/>
            <path d="M105.221 149.38C107.12 149.38 108.66 147.84 108.66 145.941C108.66 144.041 107.12 142.501 105.221 142.501C103.321 142.501 101.782 144.041 101.782 145.941C101.782 147.84 103.321 149.38 105.221 149.38Z" fill="#3F3D56"/>
            <path d="M220.846 153.856L235.685 157.697L244.786 175.574L229.4 176.177L220.846 153.856Z" fill="#E6E6E6"/>
            <path d="M186.595 128.085L194.762 136.257L215.505 181.104L211.686 184.403L186.595 128.085Z" fill="#CCCCCC"/>
            <path d="M168.837 135.493L169.478 147.028L189.057 192.395L194.062 191.751L168.837 135.493Z" fill="#CCCCCC"/>
            <path d="M168.303 182.094L160.311 195.174L166.203 214.349L177.679 204.082L168.303 182.094Z" fill="#E6E6E6"/>
            <path d="M258.466 197C253.966 197 249.032 196.83 243.667 196.49C215.914 194.727 179.967 188.6 142.446 179.237C104.925 169.875 70.3128 158.394 44.9862 146.912C32.6488 141.318 23.18 136.023 16.843 131.174C10.1337 126.04 7.19899 121.565 8.11998 117.874C9.91448 110.683 25.8041 109.11 38.8179 109.057L38.8223 110.102C20.9509 110.176 10.4078 113.026 9.13477 118.127C7.5132 124.625 20.738 134.769 45.418 145.959C70.689 157.416 105.237 168.875 142.699 178.223C180.161 187.571 216.042 193.687 243.733 195.446C270.776 197.164 287.217 194.422 288.838 187.924C290.184 182.529 281.309 174.582 263.848 165.546L264.329 164.617C277.016 171.183 291.744 180.6 289.853 188.177C288.932 191.869 284.239 194.44 275.904 195.819C271.153 196.606 265.318 197 258.466 197Z" fill="#3F3D56"/>
        </g>
        <defs>
            <clipPath id="clip0_1_50">
                <rect width="290" height="265.509" fill="white"/>
            </clipPath>
        </defs>
    </symbol>
    <symbol viewBox="0 0 200 140" xmlns="http://www.w3.org/2000/svg" xmlns:xlink="http://www.w3.org/1999/xlink" id="illustration-empty">
        <path d="M162 0H42C36.4772 0 32 4.47715 32 10V130C32 135.523 36.4772 140 42 140H162C167.523 140 172 135.523 172 130V10C172 4.47715 167.523 0 162 0Z" fill="url(#paint0_linear_2_726)"/>
        <g filter="url(#filter0_d_2_726)">
            <path d="M146 10H11C8.23858 10 6 12.2386 6 15V40C6 42.7614 8.23858 45 11 45H146C148.761 45 151 42.7614 151 40V15C151 12.2386 148.761 10 146 10Z" fill="white"/>
        </g>
        <path d="M75 18H49C47.3431 18 46 19.3431 46 21C46 22.6569 47.3431 24 49 24H75C76.6569 24 78 22.6569 78 21C78 19.3431 76.6569 18 75 18Z" fill="#B4DAFF"/>
        <path d="M93 31H49C47.3431 31 46 32.3431 46 34C46 35.6569 47.3431 37 49 37H93C94.6569 37 96 35.6569 96 34C96 32.3431 94.6569 31 93 31Z" fill="#DEE9FC"/>
        <path d="M33 13H14C11.2386 13 9 15.2386 9 18V37C9 39.7614 11.2386 42 14 42H33C35.7614 42 38 39.7614 38 37V18C38 15.2386 35.7614 13 33 13Z" fill="#1485FD"/>
        <path d="M21.222 30.78H23.222L23.244 30.01C23.244 28.998 23.882 28.734 24.784 28.448C25.6888 28.1906 26.4852 27.6456 27.0528 26.8955C27.6204 26.1453 27.9283 25.2307 27.93 24.29C27.9498 23.7156 27.8502 23.1434 27.6374 22.6096C27.4246 22.0757 27.1033 21.5919 26.6939 21.1886C26.2844 20.7854 25.7957 20.4715 25.2587 20.2669C24.7216 20.0623 24.148 19.9714 23.574 20C22.9674 19.9868 22.3645 20.0969 21.8017 20.3237C21.239 20.5505 20.7282 20.8892 20.3003 21.3194C19.8724 21.7495 19.5363 22.2621 19.3124 22.826C19.0886 23.39 18.9816 23.9935 18.998 24.6H21.066C21.0582 24.2651 21.1172 23.932 21.2398 23.6203C21.3623 23.3085 21.5458 23.0244 21.7796 22.7844C22.0133 22.5445 22.2927 22.3537 22.6011 22.2231C22.9096 22.0925 23.241 22.0248 23.576 22.024C23.8781 22.0065 24.1804 22.0542 24.4624 22.1639C24.7444 22.2736 24.9994 22.4428 25.2102 22.6599C25.421 22.8769 25.5827 23.1368 25.6841 23.4219C25.7855 23.707 25.8243 24.0106 25.798 24.312C25.7847 24.7999 25.615 25.2706 25.314 25.6548C25.013 26.039 24.5965 26.3163 24.126 26.446L23.4 26.734C22.6892 26.9053 22.0687 27.3372 21.6612 27.9443C21.2538 28.5514 21.0892 29.2893 21.2 30.012L21.222 30.78ZM22.212 35.534C22.4078 35.541 22.6031 35.5086 22.7862 35.4388C22.9693 35.369 23.1366 35.2632 23.2781 35.1276C23.4196 34.9921 23.5325 34.8295 23.6102 34.6496C23.6878 34.4696 23.7285 34.276 23.73 34.08C23.7283 33.8842 23.6873 33.6907 23.6096 33.511C23.5318 33.3313 23.4189 33.169 23.2774 33.0337C23.1359 32.8983 22.9687 32.7927 22.7857 32.723C22.6028 32.6534 22.4077 32.621 22.212 32.628C22.0163 32.621 21.8212 32.6534 21.6383 32.723C21.4553 32.7927 21.2881 32.8983 21.1466 33.0337C21.0051 33.169 20.8922 33.3313 20.8144 33.511C20.7367 33.6907 20.6958 33.8842 20.694 34.08C20.6955 34.276 20.7362 34.4696 20.8139 34.6496C20.8915 34.8295 21.0044 34.9921 21.1459 35.1276C21.2874 35.2632 21.4547 35.369 21.6378 35.4388C21.8209 35.5086 22.0162 35.541 22.212 35.534V35.534Z" fill="white"/>
        <g filter="url(#filter1_d_2_726)">
            <path d="M54 53H189C190.326 53 191.598 53.5268 192.536 54.4645C193.473 55.4021 194 56.6739 194 58V83C194 84.3261 193.473 85.5979 192.536 86.5355C191.598 87.4732 190.326 88 189 88H54C52.6739 88 51.4021 87.4732 50.4645 86.5355C49.5268 85.5979 49 84.3261 49 83V58C49 56.6739 49.5268 55.4021 50.4645 54.4645C51.4021 53.5268 52.6739 53 54 53V53Z" fill="white"/>
        </g>
        <path d="M118 61H92C90.3431 61 89 62.3431 89 64C89 65.6569 90.3431 67 92 67H118C119.657 67 121 65.6569 121 64C121 62.3431 119.657 61 118 61Z" fill="#B4DAFF"/>
        <path d="M136 74H92C90.3431 74 89 75.3431 89 77C89 78.6569 90.3431 80 92 80H136C137.657 80 139 78.6569 139 77C139 75.3431 137.657 74 136 74Z" fill="#DEE9FC"/>
        <path d="M76 56H57C54.2386 56 52 58.2386 52 61V80C52 82.7614 54.2386 85 57 85H76C78.7614 85 81 82.7614 81 80V61C81 58.2386 78.7614 56 76 56Z" fill="#1485FD"/>
        <path d="M64.222 73.78H66.222L66.244 73.01C66.244 71.998 66.882 71.734 67.784 71.448C68.6888 71.1906 69.4852 70.6456 70.0528 69.8955C70.6204 69.1453 70.9283 68.2307 70.93 67.29C70.9498 66.7156 70.8502 66.1434 70.6374 65.6096C70.4246 65.0757 70.1033 64.5919 69.6939 64.1886C69.2844 63.7854 68.7957 63.4715 68.2587 63.2669C67.7216 63.0623 67.148 62.9714 66.574 63C65.9674 62.9868 65.3645 63.0969 64.8017 63.3237C64.239 63.5505 63.7282 63.8892 63.3003 64.3194C62.8724 64.7495 62.5363 65.2621 62.3124 65.826C62.0886 66.39 61.9816 66.9935 61.998 67.6H64.066C64.0582 67.2651 64.1172 66.932 64.2398 66.6203C64.3623 66.3085 64.5458 66.0244 64.7796 65.7844C65.0133 65.5445 65.2927 65.3537 65.6011 65.2231C65.9096 65.0925 66.241 65.0248 66.576 65.024C66.8781 65.0065 67.1804 65.0542 67.4624 65.1639C67.7444 65.2736 67.9994 65.4428 68.2102 65.6599C68.421 65.8769 68.5827 66.1368 68.6841 66.4219C68.7855 66.707 68.8243 67.0106 68.798 67.312C68.7847 67.7999 68.615 68.2706 68.314 68.6548C68.013 69.039 67.5965 69.3163 67.126 69.446L66.4 69.734C65.6892 69.9053 65.0687 70.3372 64.6612 70.9443C64.2538 71.5514 64.0892 72.2893 64.2 73.012L64.222 73.78ZM65.212 78.534C65.4078 78.541 65.6031 78.5086 65.7862 78.4388C65.9693 78.369 66.1366 78.2632 66.2781 78.1276C66.4196 77.9921 66.5325 77.8295 66.6102 77.6496C66.6878 77.4696 66.7285 77.276 66.73 77.08C66.7283 76.8842 66.6873 76.6907 66.6096 76.511C66.5318 76.3313 66.4189 76.169 66.2774 76.0337C66.1359 75.8983 65.9687 75.7927 65.7857 75.723C65.6028 75.6534 65.4077 75.621 65.212 75.628C65.0163 75.621 64.8212 75.6534 64.6383 75.723C64.4553 75.7927 64.2881 75.8983 64.1466 76.0337C64.0051 76.169 63.8922 76.3313 63.8144 76.511C63.7367 76.6907 63.6958 76.8842 63.694 77.08C63.6955 77.276 63.7362 77.4696 63.8139 77.6496C63.8915 77.8295 64.0044 77.9921 64.1459 78.1276C64.2874 78.2632 64.4547 78.369 64.6378 78.4388C64.8209 78.5086 65.0162 78.541 65.212 78.534V78.534Z" fill="white"/>
        <g filter="url(#filter2_d_2_726)">
            <path d="M11 96H146C147.326 96 148.598 96.5268 149.536 97.4645C150.473 98.4021 151 99.6739 151 101V126C151 127.326 150.473 128.598 149.536 129.536C148.598 130.473 147.326 131 146 131H11C9.67392 131 8.40215 130.473 7.46447 129.536C6.52678 128.598 6 127.326 6 126V101C6 99.6739 6.52678 98.4021 7.46447 97.4645C8.40215 96.5268 9.67392 96 11 96V96Z" fill="white"/>
        </g>
        <path d="M75 104H49C47.3431 104 46 105.343 46 107C46 108.657 47.3431 110 49 110H75C76.6569 110 78 108.657 78 107C78 105.343 76.6569 104 75 104Z" fill="#B4DAFF"/>
        <path d="M93 117H49C47.3431 117 46 118.343 46 120C46 121.657 47.3431 123 49 123H93C94.6569 123 96 121.657 96 120C96 118.343 94.6569 117 93 117Z" fill="#DEE9FC"/>
        <path d="M33 99H14C11.2386 99 9 101.239 9 104V123C9 125.761 11.2386 128 14 128H33C35.7614 128 38 125.761 38 123V104C38 101.239 35.7614 99 33 99Z" fill="#1485FD"/>
        <path d="M21.222 116.78H23.222L23.244 116.01C23.244 114.998 23.882 114.734 24.784 114.448C25.6888 114.191 26.4852 113.646 27.0528 112.895C27.6204 112.145 27.9283 111.231 27.93 110.29C27.9498 109.716 27.8502 109.143 27.6374 108.61C27.4246 108.076 27.1033 107.592 26.6939 107.189C26.2844 106.785 25.7957 106.472 25.2587 106.267C24.7216 106.062 24.148 105.971 23.574 106C22.9674 105.987 22.3645 106.097 21.8017 106.324C21.239 106.55 20.7282 106.889 20.3003 107.319C19.8724 107.75 19.5363 108.262 19.3124 108.826C19.0886 109.39 18.9816 109.993 18.998 110.6H21.066C21.0582 110.265 21.1172 109.932 21.2398 109.62C21.3623 109.309 21.5458 109.024 21.7796 108.784C22.0133 108.545 22.2927 108.354 22.6011 108.223C22.9096 108.093 23.241 108.025 23.576 108.024C23.8781 108.006 24.1804 108.054 24.4624 108.164C24.7444 108.274 24.9994 108.443 25.2102 108.66C25.421 108.877 25.5827 109.137 25.6841 109.422C25.7855 109.707 25.8243 110.011 25.798 110.312C25.7847 110.8 25.615 111.271 25.314 111.655C25.013 112.039 24.5965 112.316 24.126 112.446L23.4 112.734C22.6892 112.905 22.0687 113.337 21.6612 113.944C21.2538 114.551 21.0892 115.289 21.2 116.012L21.222 116.78ZM22.212 121.534C22.4078 121.541 22.6031 121.509 22.7862 121.439C22.9693 121.369 23.1366 121.263 23.2781 121.128C23.4196 120.992 23.5325 120.83 23.6102 120.65C23.6878 120.47 23.7285 120.276 23.73 120.08C23.7283 119.884 23.6873 119.691 23.6096 119.511C23.5318 119.331 23.4189 119.169 23.2774 119.034C23.1359 118.898 22.9687 118.793 22.7857 118.723C22.6028 118.653 22.4077 118.621 22.212 118.628C22.0163 118.621 21.8212 118.653 21.6383 118.723C21.4553 118.793 21.2881 118.898 21.1466 119.034C21.0051 119.169 20.8922 119.331 20.8144 119.511C20.7367 119.691 20.6958 119.884 20.694 120.08C20.6955 120.276 20.7362 120.47 20.8139 120.65C20.8915 120.83 21.0044 120.992 21.1459 121.128C21.2874 121.263 21.4547 121.369 21.6378 121.439C21.8209 121.509 22.0162 121.541 22.212 121.534V121.534Z" fill="white"/>
        <defs>
            <filter id="filter0_d_2_726" x="0" y="7" width="157" height="47" filterUnits="userSpaceOnUse" color-interpolation-filters="sRGB">
                <feFlood flood-opacity="0" result="BackgroundImageFix"/>
                <feColorMatrix in="SourceAlpha" type="matrix" values="0 0 0 0 0 0 0 0 0 0 0 0 0 0 0 0 0 0 127 0" result="hardAlpha"/>
                <feOffset dy="3"/>
                <feGaussianBlur stdDeviation="3"/>
                <feColorMatrix type="matrix" values="0 0 0 0 0 0 0 0 0 0 0 0 0 0 0 0 0 0 0.161 0"/>
                <feBlend mode="normal" in2="BackgroundImageFix" result="effect1_dropShadow_2_726"/>
                <feBlend mode="normal" in="SourceGraphic" in2="effect1_dropShadow_2_726" result="shape"/>
            </filter>
            <filter id="filter1_d_2_726" x="43" y="50" width="157" height="47" filterUnits="userSpaceOnUse" color-interpolation-filters="sRGB">
                <feFlood flood-opacity="0" result="BackgroundImageFix"/>
                <feColorMatrix in="SourceAlpha" type="matrix" values="0 0 0 0 0 0 0 0 0 0 0 0 0 0 0 0 0 0 127 0" result="hardAlpha"/>
                <feOffset dy="3"/>
                <feGaussianBlur stdDeviation="3"/>
                <feColorMatrix type="matrix" values="0 0 0 0 0 0 0 0 0 0 0 0 0 0 0 0 0 0 0.161 0"/>
                <feBlend mode="normal" in2="BackgroundImageFix" result="effect1_dropShadow_2_726"/>
                <feBlend mode="normal" in="SourceGraphic" in2="effect1_dropShadow_2_726" result="shape"/>
            </filter>
            <filter id="filter2_d_2_726" x="0" y="93" width="157" height="47" filterUnits="userSpaceOnUse" color-interpolation-filters="sRGB">
                <feFlood flood-opacity="0" result="BackgroundImageFix"/>
                <feColorMatrix in="SourceAlpha" type="matrix" values="0 0 0 0 0 0 0 0 0 0 0 0 0 0 0 0 0 0 127 0" result="hardAlpha"/>
                <feOffset dy="3"/>
                <feGaussianBlur stdDeviation="3"/>
                <feColorMatrix type="matrix" values="0 0 0 0 0 0 0 0 0 0 0 0 0 0 0 0 0 0 0.161 0"/>
                <feBlend mode="normal" in2="BackgroundImageFix" result="effect1_dropShadow_2_726"/>
                <feBlend mode="normal" in="SourceGraphic" in2="effect1_dropShadow_2_726" result="shape"/>
            </filter>
                <linearGradient id="paint0_linear_2_726" x1="102" y1="0" x2="102" y2="140" gradientUnits="userSpaceOnUse">
                <stop stop-color="#E3ECFA"/>
                <stop offset="1" stop-color="#DAE7FF"/>
            </linearGradient>
        </defs>
    </symbol>
    <symbol viewBox="0 0 24 24" xmlns="http://www.w3.org/2000/svg" xmlns:xlink="http://www.w3.org/1999/xlink" fill="none" stroke="currentcolor" stroke-width="1.5" stroke-linecap="round" stroke-linejoin="round" id="icon-alert-octagon">
        <polygon points="7.86 2 16.14 2 22 7.86 22 16.14 16.14 22 7.86 22 2 16.14 2 7.86 7.86 2"></polygon>
        <line x1="12" y1="8" x2="12" y2="12"></line>
        <line x1="12" y1="16" x2="12.01" y2="16"></line>
    </symbol>
    <symbol viewBox="0 0 24 24" xmlns="http://www.w3.org/2000/svg" xmlns:xlink="http://www.w3.org/1999/xlink" fill="none" stroke="currentcolor" stroke-width="1.5" stroke-linecap="round" stroke-linejoin="round" id="icon-upload-cloud">
        <polyline points="16 16 12 12 8 16"></polyline>
        <line x1="12" y1="12" x2="12" y2="21"></line>
        <path d="M20.39 18.39A5 5 0 0 0 18 9h-1.26A8 8 0 1 0 3 16.3"></path>
        <polyline points="16 16 12 12 8 16"></polyline>
    </symbol>
    <symbol viewBox="0 0 24 24" xmlns="http://www.w3.org/2000/svg" xmlns:xlink="http://www.w3.org/1999/xlink" fill="none" stroke="currentcolor" stroke-width="1.5" stroke-linecap="round" stroke-linejoin="round" id="icon-x">
        <line x1="18" y1="6" x2="6" y2="18"></line>
        <line x1="6" y1="6" x2="18" y2="18"></line>
    </symbol>
    <symbol viewBox="0 0 24 24" xmlns="http://www.w3.org/2000/svg" xmlns:xlink="http://www.w3.org/1999/xlink" fill="none" stroke="currentcolor" stroke-width="1.5" stroke-linecap="round" stroke-linejoin="round" id="icon-loader">
        <line x1="12" y1="2" x2="12" y2="6"></line>
        <line x1="12" y1="18" x2="12" y2="22"></line>
        <line x1="4.93" y1="4.93" x2="7.76" y2="7.76"></line>
        <line x1="16.24" y1="16.24" x2="19.07" y2="19.07"></line>
        <line x1="2" y1="12" x2="6" y2="12"></line>
        <line x1="18" y1="12" x2="22" y2="12"></line>
        <line x1="4.93" y1="19.07" x2="7.76" y2="16.24"></line>
        <line x1="16.24" y1="7.76" x2="19.07" y2="4.93"></line>
    </symbol>
</svg>